<?xml version="1.0" encoding="utf-8"?>
<!-- Generator: Adobe Illustrator 24.2.1, SVG Export Plug-In . SVG Version: 6.00 Build 0)  -->
<svg version="1.1" xmlns="http://www.w3.org/2000/svg" xmlns:xlink="http://www.w3.org/1999/xlink" x="0px" y="0px"
	 viewBox="0 0 1000 1000" style="enable-background:new 0 0 1000 1000;" xml:space="preserve">
<style type="text/css">
	.st0{display:none;}
	.st1{display:inline;}
</style>
<g id="Ebene_1" class="st0">
	<g class="st1">
		<g>
			<circle cx="500" cy="500" r="121"/>
		</g>
		<g>
			<circle cx="808.5" cy="500" r="121"/>
		</g>
		<g>
			<circle cx="191.5" cy="500" r="121"/>
		</g>
	</g>
</g>
<g id="Ebene_2">
	<path d="M502,458.4c128.8,0,257.5,0,386.3,0c26.8,0,45.4,22.7,39.6,48.1c-3.8,16.6-18.8,29.1-36.2,30c-1.6,0.1-3.3,0-4.9,0
		c-257,0-514.1,0-771.1,0c-23,0-39.5-13.9-41.7-34.9c-2.4-23.1,14.9-42.8,38.2-43.2c21.2-0.3,42.5-0.1,63.7-0.1
		C284.7,458.4,393.3,458.4,502,458.4z"/>
	<path d="M552.5,248.1c112.2,0,224.3,0,336.5,0c17.2,0,31.3,9.4,37.2,24.6c5.9,14.9,2,32.1-9.8,43c-7.7,7.1-16.9,10.4-27.4,10.3
		c-14-0.1-28,0-42,0c-210.1,0-420.2-0.2-630.3,0.2c-30.4,0.1-50.2-28.7-38.2-55.1c7-15.5,19.7-23.1,36.8-23c71.1,0,142.3,0,213.4,0
		C469.9,248.1,511.2,248.1,552.5,248.1z"/>
	<path d="M661.5,746.8c-75.5,0-151.1,0-226.6,0c-18.4,0-33.7-11.8-38.1-29.1c-4.3-16.7,2.9-35.2,18-43.2c6.1-3.2,13.7-5.3,20.6-5.3
		c151.3-0.3,302.6-0.3,453.9-0.2c22.8,0,39.8,17.2,39.6,39.2c-0.1,22-17.3,38.7-40.1,38.7C813,746.8,737.2,746.8,661.5,746.8z"/>
</g>
</svg>
