<svg id="Layer_1" data-name="Layer 1" xmlns="http://www.w3.org/2000/svg" xmlns:xlink="http://www.w3.org/1999/xlink" viewBox="0 0 288 288"><defs><style>.cls-1{fill:#fff;}.cls-2{fill:url(#linear-gradient);}</style><linearGradient id="linear-gradient" x1="181.61" y1="77.67" x2="229.85" y2="119.81" gradientUnits="userSpaceOnUse"><stop offset="0" stop-color="#833ab4"/><stop offset="0.47" stop-color="#fd1d1d"/><stop offset="0.49" stop-color="#fd2e22"/><stop offset="0.54" stop-color="#fd552c"/><stop offset="0.59" stop-color="#fc7635"/><stop offset="0.65" stop-color="#fc903c"/><stop offset="0.71" stop-color="#fca241"/><stop offset="0.77" stop-color="#fcad44"/><stop offset="0.83" stop-color="#fcb045"/></linearGradient></defs><circle cx="144" cy="144" r="144"/><path class="cls-1" d="M598.14,340.29h14.58l34.33,101.5H633.37l-17.7-56.69c-3.65-11.34-6.9-22.49-10.16-34.2h-.62c-3.14,11.77-6.4,22.86-10,34.2L577,441.79H563.81Zm-16.28,60.28h46.73v10.3H581.86Z" transform="translate(-513.18 -250.3)"/><path class="cls-1" d="M660.12,376.34h9.15l.93,9.49h.37c5.73-6.19,12.57-11.1,20.37-11.1,10,0,15.37,4.79,18.07,12.47,6.79-7.36,13.62-12.47,21.58-12.47,13.45,0,19.92,8.9,19.92,25.59v41.47H739.43v-40c0-12.19-3.86-17.41-12.18-17.41-5.07,0-10.35,3.32-16.4,10.06v47.39H699.77v-40c0-12.19-3.85-17.41-12.17-17.41-4.91,0-10.35,3.32-16.41,10.06v47.39H660.12Z" transform="translate(-513.18 -250.3)"/><circle class="cls-2" cx="198.82" cy="92.7" r="16"/></svg>